# Blender v2.71 (sub 0) OBJ File: ''
# www.blender.org
mtllib Stone.mtl
o Stone_Cube.370
v -0.035084 0.000407 -0.000539
v -0.035084 0.000407 0.999461
v -1.035084 0.000407 0.999461
v -1.035084 0.000407 -0.000539
v -0.035083 1.000407 -0.000539
v -1.035084 1.000407 -0.000539
v -1.035084 1.000407 0.999461
v -0.035084 1.000407 0.999461
vt 0.125000 1.000000
vt 0.062500 1.000000
vt 0.062500 0.937500
vt 0.125000 0.937500
vn 0.000000 -1.000000 -0.000000
vn 0.000000 1.000000 0.000000
vn 1.000000 -0.000000 0.000000
vn 0.000000 -0.000000 1.000000
vn -1.000000 0.000000 0.000000
vn 0.000000 0.000000 -1.000000
usemtl Terrain
s off
f 1/1/1 2/2/1 3/3/1 4/4/1
f 5/4/2 6/1/2 7/2/2 8/3/2
f 1/4/3 5/1/3 8/2/3 2/3/3
f 2/4/4 8/1/4 7/2/4 3/3/4
f 3/4/5 7/1/5 6/2/5 4/3/5
f 5/2/6 1/3/6 4/4/6 6/1/6
