# Blender v2.77 (sub 0) OBJ File: ''
# www.blender.org
mtllib ItmThunder.mtl
o polygon1
v -0.622070 1.870361 -0.074707
v -0.010498 2.607910 -0.900635
v -0.005371 0.527101 -3.263428
v -0.846924 0.189697 -0.825928
v 0.000000 -1.382813 -0.860107
v 0.696777 -1.272217 -0.656250
v 0.846924 0.172119 -0.826660
v 0.622070 1.870361 -0.074707
v 0.641846 1.692383 0.338135
v 1.040771 0.042725 -0.218018
v -0.622070 -1.870361 0.074707
v -0.010498 -2.607910 0.900635
v -0.005371 -0.527101 3.263428
v -0.846924 -0.189697 0.825928
v -0.478760 0.966553 1.159180
v -0.696777 1.272217 0.656250
v -1.040771 -0.042725 0.218018
v -0.478760 -0.966553 -1.159180
v -0.696777 -1.272217 -0.656250
v -1.040771 0.042725 -0.218018
v -0.641846 1.692383 0.338135
v 0.000000 1.088379 1.233643
v 0.000000 1.382813 0.860107
v -0.641846 -1.692383 -0.338135
v 0.000000 -1.088379 -1.233643
v 0.622070 -1.870361 0.074707
v 0.846924 -0.172119 0.826660
v 0.483154 -0.966553 -1.159180
v 0.641846 -1.692383 -0.338135
v 1.040771 -0.042725 0.218018
v 0.696777 1.272217 0.656250
v 0.483154 0.966553 1.159180
v 0.000000 4.522217 1.092042
v 0.000000 -4.522217 -1.092042
vt 0.5264 0.7633
vt 0.4032 0.8336
vt 0.0445 0.6254
vt 0.4388 0.5626
vt 0.4392 0.5609
vt 0.5268 0.7633
vt 0.5794 0.7543
vt 0.5185 0.5514
vt 0.5731 0.3730
vt 0.7086 0.3116
vt 0.9728 0.5199
vt 0.6463 0.5358
vt 0.6853 0.6881
vt 0.6164 0.7246
vt 0.5699 0.5474
vt 0.4094 0.4571
vt 0.4824 0.4206
vt 0.5184 0.5515
vt 0.5793 0.7544
vt 0.6955 0.7027
vt 0.6444 0.7379
vt 0.5181 0.3806
vt 0.3985 0.4426
vt 0.4528 0.4074
vt 0.5726 0.3730
vt 0.6460 0.5376
vt 0.4824 0.4206
vt 0.4094 0.4571
vt 0.5180 0.3807
vt 0.5698 0.5475
vt 0.6164 0.7246
vt 0.6853 0.6881
vt 0.7198 0.9922
vt 0.3380 0.0073
vn -0.9366 0.2911 -0.1948
vn -0.0052 0.6981 -0.7159
vn -0.0026 -0.3501 -0.9367
vn -0.9482 0.0471 -0.3141
vn 0.9474 0.0485 -0.3164
vn 0.9348 0.2935 -0.2000
vn 0.9689 0.1892 -0.1596
vn 0.9926 0.0142 -0.1209
vn -0.9366 -0.2911 0.1948
vn -0.0052 -0.6981 0.7159
vn -0.0026 0.3501 0.9367
vn -0.9482 -0.0471 0.3141
vn -0.6732 0.4661 0.5741
vn -0.6433 0.4134 0.6444
vn -0.9925 -0.0143 0.1213
vn -0.6732 -0.4661 -0.5741
vn -0.6869 -0.3075 -0.6585
vn -0.9925 0.0143 -0.1213
vn -0.9240 0.1944 0.3292
vn -0.0010 0.7157 0.6984
vn -0.5352 0.3053 0.7877
vn -0.9186 -0.2069 -0.3366
vn -0.0010 -0.7157 -0.6984
vn -0.7225 -0.2492 -0.6449
vn 0.9348 -0.2935 0.2000
vn 0.9474 -0.0485 0.3164
vn 0.9654 -0.0076 -0.2607
vn 0.6724 -0.4664 -0.5748
vn 0.9755 -0.1801 0.1267
vn 0.9926 -0.0142 0.1209
vn 0.9446 -0.2881 0.1571
vn 0.6724 0.4664 0.5748
vn -0.0030 0.6029 0.7978
vn -0.0029 -0.6029 -0.7978
usemtl mat1
s 1
f 1/1/1 2/2/2 3/3/3
f 4/4/4 1/1/1 3/3/3
f 7/5/5 8/6/6 9/7/7
f 10/8/8 7/5/5 9/7/7
f 11/9/9 12/10/10 13/11/11
f 14/12/12 11/9/9 13/11/11
f 15/13/13 16/14/14 17/15/15
f 14/12/12 15/13/13 17/15/15
f 18/16/16 19/17/17 20/18/18
f 4/4/4 18/16/16 20/18/18
f 21/19/19 1/1/1 4/4/4
f 20/18/18 21/19/19 4/4/4
f 21/19/19 20/18/18 17/15/15
f 16/14/14 21/19/19 17/15/15
f 16/14/14 15/13/13 22/20/20
f 23/21/21 16/14/14 22/20/20
f 24/22/22 17/15/15 20/18/18
f 19/17/17 24/22/22 20/18/18
f 19/17/17 18/16/16 25/23/23
f 5/24/24 19/17/17 25/23/23
f 24/22/22 11/9/9 14/12/12
f 17/15/15 24/22/22 14/12/12
f 13/11/11 12/10/10 26/25/25
f 27/26/26 13/11/11 26/25/25
f 10/8/8 6/27/27 28/28/28
f 7/5/5 10/8/8 28/28/28
f 27/26/26 26/25/25 29/29/29
f 30/30/30 27/26/26 29/29/29
f 30/30/30 31/31/31 32/32/32
f 27/26/26 30/30/30 32/32/32
f 10/8/8 30/30/30 29/29/29
f 6/27/27 10/8/8 29/29/29
f 3/3/3 2/2/2 8/6/6
f 7/5/5 3/3/3 8/6/6
f 30/30/30 10/8/8 9/7/7
f 31/31/31 30/30/30 9/7/7
f 22/20/20 32/32/32 31/31/31
f 23/21/21 22/20/20 31/31/31
f 25/23/23 28/28/28 6/27/27
f 5/24/24 25/23/23 6/27/27
f 14/12/12 13/11/11 15/13/13
f 21/19/19 16/14/14 33/33/33
f 23/21/21 33/33/33 16/14/14
f 22/20/20 15/13/13 13/11/11
f 1/1/1 21/19/19 33/33/33
f 1/1/1 33/33/33 2/2/2
f 8/6/6 2/2/2 33/33/33
f 27/26/26 32/32/32 13/11/11
f 9/7/7 33/33/33 31/31/31
f 23/21/21 31/31/31 33/33/33
f 22/20/20 13/11/11 32/32/32
f 8/6/6 33/33/33 9/7/7
f 25/23/23 18/16/16 3/3/3
f 11/9/9 34/34/34 12/10/10
f 7/5/5 28/28/28 3/3/3
f 29/29/29 34/34/34 6/27/27
f 5/24/24 6/27/27 34/34/34
f 24/22/22 19/17/17 34/34/34
f 25/23/23 3/3/3 28/28/28
f 5/24/24 34/34/34 19/17/17
f 4/4/4 3/3/3 18/16/16
f 11/9/9 24/22/22 34/34/34
f 26/25/25 34/34/34 29/29/29
f 26/25/25 12/10/10 34/34/34
